<mxfile host="65bd71144e">
    <diagram id="vNnLvl0aOUERtY2fWWQc" name="Page-1">
        <mxGraphModel dx="1072" dy="2928" grid="1" gridSize="10" guides="1" tooltips="1" connect="1" arrows="1" fold="1" page="1" pageScale="1" pageWidth="850" pageHeight="1100" background="none" math="0" shadow="0">
            <root>
                <mxCell id="0"/>
                <mxCell id="1" parent="0"/>
                <mxCell id="2" value="&lt;br&gt;&lt;br&gt;&lt;br&gt;&lt;br&gt;&lt;br&gt;&lt;br&gt;&lt;br&gt;&lt;br&gt;&lt;br&gt;&lt;br&gt;&lt;br&gt;&lt;br&gt;&lt;br&gt;&lt;br&gt;&lt;br&gt;&lt;br&gt;&lt;br&gt;&lt;br&gt;&lt;br&gt;&lt;br&gt;&lt;br&gt;&lt;br&gt;&lt;br&gt;&lt;br&gt;&lt;br&gt;&lt;br&gt;&lt;br&gt;&lt;br&gt;&lt;br&gt;&lt;br&gt;&lt;br&gt;&lt;br&gt;&lt;br&gt;&lt;br&gt;&lt;br&gt;&lt;br&gt;&lt;br&gt;&lt;br&gt;&lt;br&gt;&lt;br&gt;&lt;br&gt;&lt;br&gt;&lt;br&gt;&lt;br&gt;&lt;br&gt;&lt;br&gt;&lt;br&gt;&lt;br&gt;&lt;br&gt;&lt;br&gt;&lt;br&gt;&lt;br&gt;&lt;br&gt;&lt;br&gt;&lt;br&gt;&lt;br&gt;&lt;br&gt;&lt;br&gt;&lt;br&gt;&lt;br&gt;&lt;br&gt;&lt;br&gt;&lt;br&gt;&lt;br&gt;&lt;br&gt;&lt;br&gt;&lt;br&gt;&lt;br&gt;&lt;br&gt;&lt;br&gt;&lt;br&gt;&lt;br&gt;&lt;br&gt;&lt;br&gt;&lt;br&gt;&lt;br&gt;&lt;br&gt;" style="strokeWidth=1;shadow=0;dashed=0;align=center;html=1;shape=mxgraph.mockup.containers.browserWindow;rSize=0;strokeColor2=#008cff;strokeColor3=#c4c4c4;mainText=,;recursiveResize=0;strokeColor=default;fillColor=#331E25;gradientColor=none;" parent="1" vertex="1">
                    <mxGeometry x="110" y="-1100" width="670" height="1130" as="geometry"/>
                </mxCell>
                <mxCell id="3" value="My Portfolio" style="strokeWidth=1;shadow=0;dashed=0;align=center;html=1;shape=mxgraph.mockup.containers.anchor;fontSize=17;fontColor=#666666;align=left;" parent="2" vertex="1">
                    <mxGeometry x="60" y="12" width="110" height="26" as="geometry"/>
                </mxCell>
                <mxCell id="4" value="https://www.myportfolio.com" style="strokeWidth=1;shadow=0;dashed=0;align=center;html=1;shape=mxgraph.mockup.containers.anchor;rSize=0;fontSize=17;fontColor=#666666;align=left;" parent="2" vertex="1">
                    <mxGeometry x="130" y="60" width="250" height="26" as="geometry"/>
                </mxCell>
                <mxCell id="14" value="Line 1" style="strokeWidth=1;shadow=0;dashed=0;align=center;html=1;shape=mxgraph.mockup.text.textBox;fontColor=#666666;align=left;fontSize=17;spacingLeft=4;spacingTop=-3;strokeColor=#666666;mainText=" parent="2" vertex="1">
                    <mxGeometry x="4" y="110" width="650" height="40" as="geometry"/>
                </mxCell>
                <mxCell id="22" value="" style="verticalLabelPosition=bottom;shadow=0;dashed=0;align=center;html=1;verticalAlign=top;strokeWidth=1;shape=mxgraph.mockup.graphics.simpleIcon;strokeColor=#999999;labelBackgroundColor=#1A1A1A;fontColor=#FFFFFF;fillColor=#1A1A1A;" parent="2" vertex="1">
                    <mxGeometry x="10" y="122.5" width="70" height="20" as="geometry"/>
                </mxCell>
                <mxCell id="23" value="&lt;b&gt;&lt;font color=&quot;#ffffff&quot;&gt;Logo&lt;/font&gt;&lt;/b&gt;" style="strokeWidth=1;shadow=0;dashed=0;align=center;html=1;shape=mxgraph.mockup.text.textBox;fontColor=#666666;align=left;fontSize=17;spacingLeft=4;spacingTop=-3;strokeColor=#666666;mainText=;labelBackgroundColor=#1A1A1A;fillColor=#1A1A1A;" parent="2" vertex="1">
                    <mxGeometry x="20" y="120" width="50" height="30" as="geometry"/>
                </mxCell>
                <mxCell id="29" value="Lorem ipsum dolor sit amet, consectetur adipisicing elit, sed do eiusmod tempor incididunt ut labore et dolore magna aliqua. Ut enim ad minim veniam, quis nostrud exercitation ullamco laboris nisi ut aliquip ex" style="text;spacingTop=-5;whiteSpace=wrap;html=1;align=left;fontSize=12;fontFamily=Helvetica;fillColor=none;strokeColor=none;labelBackgroundColor=#331E25;fontColor=#BC855D;" parent="2" vertex="1">
                    <mxGeometry x="75" y="270" width="250" height="80" as="geometry"/>
                </mxCell>
                <mxCell id="37" value="" style="strokeWidth=1;shadow=0;dashed=0;align=center;html=1;shape=mxgraph.mockup.buttons.button;strokeColor=#666666;fontColor=#ffffff;mainText=;buttonStyle=round;fontSize=17;fontStyle=1;fillColor=#321D26;whiteSpace=wrap;labelBackgroundColor=#331E25;" parent="2" vertex="1">
                    <mxGeometry x="75" y="350" width="100" height="40" as="geometry"/>
                </mxCell>
                <mxCell id="47" value="&lt;font color=&quot;#ffffff&quot;&gt;Read More&lt;/font&gt;" style="shape=rectangle;strokeColor=none;fillColor=none;linkText=;fontSize=17;fontColor=#0000ff;fontStyle=4;html=1;align=center;labelBackgroundColor=#331E25;" parent="2" vertex="1">
                    <mxGeometry x="85" y="355" width="90" height="30" as="geometry"/>
                </mxCell>
                <mxCell id="49" value="&lt;b&gt;MY IMAGE&lt;/b&gt;" style="strokeWidth=1;shadow=0;dashed=0;align=center;html=1;shape=mxgraph.mockup.text.textBox;fontColor=#666666;align=left;fontSize=17;spacingLeft=4;spacingTop=-3;strokeColor=#666666;mainText=;labelBackgroundColor=#331E25;fillColor=#321D26;" parent="2" vertex="1">
                    <mxGeometry x="400" y="210" width="180" height="180" as="geometry"/>
                </mxCell>
                <mxCell id="253" value="" style="group" parent="2" vertex="1" connectable="0">
                    <mxGeometry x="30" y="510" width="130" height="380" as="geometry"/>
                </mxCell>
                <mxCell id="71" value="" style="strokeWidth=1;shadow=0;dashed=0;align=center;html=1;shape=mxgraph.mockup.text.textBox;fontColor=#FFFFFF;align=left;fontSize=17;spacingLeft=4;spacingTop=-3;strokeColor=#666666;mainText=;labelBackgroundColor=#331E25;fillColor=#331E25;" parent="253" vertex="1">
                    <mxGeometry width="130" height="380" as="geometry"/>
                </mxCell>
                <mxCell id="222" value="&lt;h1 style=&quot;text-align: center;&quot;&gt;&lt;font style=&quot;font-size: 16px; font-weight: normal;&quot;&gt;Get Schooled&lt;/font&gt;&lt;/h1&gt;&lt;p&gt;Lorem ipsum dolor sit amet, consectetur adipisicing elit, sed do eiusmod tempor incididunt ut labore et dolore magna aliqua.&lt;/p&gt;" style="text;html=1;strokeColor=none;fillColor=none;spacing=5;spacingTop=-20;whiteSpace=wrap;overflow=hidden;rounded=0;labelBackgroundColor=#321D26;fontColor=#FFFFFF;" parent="253" vertex="1">
                    <mxGeometry x="5" y="110" width="115" height="260" as="geometry"/>
                </mxCell>
                <mxCell id="223" value="&lt;font style=&quot;font-size: 11px;&quot; color=&quot;#ffffff&quot;&gt;Click Here to View&lt;/font&gt;" style="shape=rectangle;strokeColor=none;fillColor=none;linkText=;fontSize=17;fontColor=#0000ff;fontStyle=4;html=1;align=center;labelBackgroundColor=#000000;" parent="253" vertex="1">
                    <mxGeometry x="10" y="330" width="110" height="30" as="geometry"/>
                </mxCell>
                <mxCell id="252" value="&lt;b style=&quot;font-size: 12px;&quot;&gt;PROJECT IMAGE&lt;/b&gt;" style="strokeWidth=1;shadow=0;dashed=0;align=center;html=1;shape=mxgraph.mockup.text.textBox;fontColor=#666666;align=left;fontSize=17;spacingLeft=4;spacingTop=-3;strokeColor=#666666;mainText=;labelBackgroundColor=#331E25;fillColor=#321D26;" parent="253" vertex="1">
                    <mxGeometry x="5" y="10" width="120" height="90" as="geometry"/>
                </mxCell>
                <mxCell id="259" value="" style="group" parent="2" vertex="1" connectable="0">
                    <mxGeometry x="350" y="510" width="130" height="380" as="geometry"/>
                </mxCell>
                <mxCell id="260" value="" style="strokeWidth=1;shadow=0;dashed=0;align=center;html=1;shape=mxgraph.mockup.text.textBox;fontColor=#FFFFFF;align=left;fontSize=17;spacingLeft=4;spacingTop=-3;strokeColor=#666666;mainText=;labelBackgroundColor=#331E25;fillColor=#331E25;" parent="259" vertex="1">
                    <mxGeometry width="130" height="380" as="geometry"/>
                </mxCell>
                <mxCell id="261" value="&lt;h1 style=&quot;&quot;&gt;&lt;font style=&quot;font-size: 21px;&quot;&gt;Hub Blog&lt;/font&gt;&lt;/h1&gt;&lt;p&gt;Lorem ipsum dolor sit amet, consectetur adipisicing elit, sed do eiusmod tempor incididunt ut labore et dolore magna aliqua.&lt;/p&gt;" style="text;html=1;strokeColor=none;fillColor=none;spacing=5;spacingTop=-20;whiteSpace=wrap;overflow=hidden;rounded=0;labelBackgroundColor=#321D26;fontColor=#FFFFFF;" parent="259" vertex="1">
                    <mxGeometry x="5" y="110" width="115" height="260" as="geometry"/>
                </mxCell>
                <mxCell id="262" value="&lt;font style=&quot;font-size: 11px;&quot; color=&quot;#ffffff&quot;&gt;Click Here to View&lt;/font&gt;" style="shape=rectangle;strokeColor=none;fillColor=none;linkText=;fontSize=17;fontColor=#0000ff;fontStyle=4;html=1;align=center;labelBackgroundColor=#000000;" parent="259" vertex="1">
                    <mxGeometry x="10" y="330" width="110" height="30" as="geometry"/>
                </mxCell>
                <mxCell id="263" value="&lt;b style=&quot;font-size: 12px;&quot;&gt;PROJECT IMAGE&lt;/b&gt;" style="strokeWidth=1;shadow=0;dashed=0;align=center;html=1;shape=mxgraph.mockup.text.textBox;fontColor=#666666;align=left;fontSize=17;spacingLeft=4;spacingTop=-3;strokeColor=#666666;mainText=;labelBackgroundColor=#331E25;fillColor=#321D26;" parent="259" vertex="1">
                    <mxGeometry x="5" y="10" width="120" height="90" as="geometry"/>
                </mxCell>
                <mxCell id="264" value="" style="group" parent="2" vertex="1" connectable="0">
                    <mxGeometry x="190" y="510" width="130" height="380" as="geometry"/>
                </mxCell>
                <mxCell id="265" value="" style="strokeWidth=1;shadow=0;dashed=0;align=center;html=1;shape=mxgraph.mockup.text.textBox;fontColor=#FFFFFF;align=left;fontSize=17;spacingLeft=4;spacingTop=-3;strokeColor=#666666;mainText=;labelBackgroundColor=#331E25;fillColor=#331E25;" parent="264" vertex="1">
                    <mxGeometry width="130" height="380" as="geometry"/>
                </mxCell>
                <mxCell id="266" value="&lt;h1 style=&quot;text-align: center;&quot;&gt;&lt;font style=&quot;font-size: 18px;&quot;&gt;HeadPhones&lt;/font&gt;&lt;/h1&gt;&lt;p&gt;Lorem ipsum dolor sit amet, consectetur adipisicing elit, sed do eiusmod tempor incididunt ut labore et dolore magna aliqua.&lt;/p&gt;" style="text;html=1;strokeColor=none;fillColor=none;spacing=5;spacingTop=-20;whiteSpace=wrap;overflow=hidden;rounded=0;labelBackgroundColor=#321D26;fontColor=#FFFFFF;" parent="264" vertex="1">
                    <mxGeometry x="5" y="110" width="115" height="260" as="geometry"/>
                </mxCell>
                <mxCell id="267" value="&lt;font style=&quot;font-size: 11px;&quot; color=&quot;#ffffff&quot;&gt;Click Here to View&lt;/font&gt;" style="shape=rectangle;strokeColor=none;fillColor=none;linkText=;fontSize=17;fontColor=#0000ff;fontStyle=4;html=1;align=center;labelBackgroundColor=#000000;" parent="264" vertex="1">
                    <mxGeometry x="10" y="330" width="110" height="30" as="geometry"/>
                </mxCell>
                <mxCell id="268" value="&lt;b style=&quot;font-size: 12px;&quot;&gt;PROJECT IMAGE&lt;/b&gt;" style="strokeWidth=1;shadow=0;dashed=0;align=center;html=1;shape=mxgraph.mockup.text.textBox;fontColor=#666666;align=left;fontSize=17;spacingLeft=4;spacingTop=-3;strokeColor=#666666;mainText=;labelBackgroundColor=#331E25;fillColor=#321D26;" parent="264" vertex="1">
                    <mxGeometry x="5" y="10" width="120" height="90" as="geometry"/>
                </mxCell>
                <mxCell id="254" value="" style="group" parent="2" vertex="1" connectable="0">
                    <mxGeometry x="510" y="510" width="130" height="380" as="geometry"/>
                </mxCell>
                <mxCell id="255" value="" style="strokeWidth=1;shadow=0;dashed=0;align=center;html=1;shape=mxgraph.mockup.text.textBox;fontColor=#FFFFFF;align=left;fontSize=17;spacingLeft=4;spacingTop=-3;strokeColor=#666666;mainText=;labelBackgroundColor=#331E25;fillColor=#331E25;" parent="254" vertex="1">
                    <mxGeometry width="130" height="380" as="geometry"/>
                </mxCell>
                <mxCell id="256" value="&lt;h1 style=&quot;text-align: center;&quot;&gt;&lt;font style=&quot;font-size: 21px;&quot;&gt;Logistics&lt;/font&gt;&lt;/h1&gt;&lt;p&gt;Lorem ipsum dolor sit amet, consectetur adipisicing elit, sed do eiusmod tempor incididunt ut labore et dolore magna aliqua.&lt;/p&gt;" style="text;html=1;strokeColor=none;fillColor=none;spacing=5;spacingTop=-20;whiteSpace=wrap;overflow=hidden;rounded=0;labelBackgroundColor=#321D26;fontColor=#FFFFFF;" parent="254" vertex="1">
                    <mxGeometry x="5" y="110" width="115" height="260" as="geometry"/>
                </mxCell>
                <mxCell id="257" value="&lt;font style=&quot;font-size: 11px;&quot; color=&quot;#ffffff&quot;&gt;Click Here to View&lt;/font&gt;" style="shape=rectangle;strokeColor=none;fillColor=none;linkText=;fontSize=17;fontColor=#0000ff;fontStyle=4;html=1;align=center;labelBackgroundColor=#000000;" parent="254" vertex="1">
                    <mxGeometry x="10" y="330" width="110" height="30" as="geometry"/>
                </mxCell>
                <mxCell id="258" value="&lt;b style=&quot;font-size: 12px;&quot;&gt;PROJECT IMAGE&lt;/b&gt;" style="strokeWidth=1;shadow=0;dashed=0;align=center;html=1;shape=mxgraph.mockup.text.textBox;fontColor=#666666;align=left;fontSize=17;spacingLeft=4;spacingTop=-3;strokeColor=#666666;mainText=;labelBackgroundColor=#331E25;fillColor=#321D26;" parent="254" vertex="1">
                    <mxGeometry x="5" y="10" width="120" height="90" as="geometry"/>
                </mxCell>
                <mxCell id="272" value="" style="group" parent="2" vertex="1" connectable="0">
                    <mxGeometry x="260" y="920" width="130" height="40" as="geometry"/>
                </mxCell>
                <mxCell id="134" value="" style="strokeWidth=1;shadow=0;dashed=0;align=center;html=1;shape=mxgraph.mockup.text.textBox;fontColor=#FFFFFF;align=left;fontSize=17;spacingLeft=4;spacingTop=-3;strokeColor=#666666;mainText=;labelBackgroundColor=#331E25;fillColor=#331E25;" parent="272" vertex="1">
                    <mxGeometry width="130" height="40" as="geometry"/>
                </mxCell>
                <mxCell id="135" value="&lt;font color=&quot;#ffffff&quot;&gt;View More&lt;/font&gt;" style="shape=rectangle;strokeColor=none;fillColor=none;linkText=;fontSize=17;fontColor=#0000ff;fontStyle=4;html=1;align=center;labelBackgroundColor=#000000;" parent="272" vertex="1">
                    <mxGeometry x="10" y="5" width="110" height="30" as="geometry"/>
                </mxCell>
                <mxCell id="322" value="&lt;font color=&quot;#ffffff&quot;&gt;&lt;span style=&quot;font-size: 19px; background-color: rgb(60, 39, 46);&quot;&gt;Contact Me&lt;/span&gt;&lt;/font&gt;" style="shape=rectangle;strokeColor=none;fillColor=none;linkText=;fontSize=17;fontColor=#0000ff;fontStyle=4;html=1;align=center;labelBackgroundColor=#000000;" parent="2" vertex="1">
                    <mxGeometry x="265" y="1030" width="110" height="30" as="geometry"/>
                </mxCell>
                <mxCell id="334" value="&lt;font color=&quot;#ffffff&quot;&gt;Github&lt;/font&gt;" style="shape=rectangle;strokeColor=none;fillColor=none;linkText=;fontSize=17;fontColor=#0000ff;fontStyle=4;html=1;align=center;labelBackgroundColor=#000000;" parent="2" vertex="1">
                    <mxGeometry x="282.3138461538462" y="1080" width="67.69230769230771" height="15" as="geometry"/>
                </mxCell>
                <mxCell id="336" value="&lt;font color=&quot;#ffffff&quot;&gt;Twitter&lt;/font&gt;" style="shape=rectangle;strokeColor=none;fillColor=none;linkText=;fontSize=17;fontColor=#0000ff;fontStyle=4;html=1;align=center;labelBackgroundColor=#000000;" parent="2" vertex="1">
                    <mxGeometry x="340.0038461538462" y="1080" width="67.69230769230771" height="15" as="geometry"/>
                </mxCell>
                <mxCell id="341" value="&lt;font color=&quot;#ffffff&quot;&gt;Linkined&lt;/font&gt;" style="shape=rectangle;strokeColor=none;fillColor=none;linkText=;fontSize=17;fontColor=#0000ff;fontStyle=4;html=1;align=center;labelBackgroundColor=#000000;" parent="2" vertex="1">
                    <mxGeometry x="221.15384615384616" y="1080" width="67.69230769230771" height="15" as="geometry"/>
                </mxCell>
                <mxCell id="344" value="&lt;font color=&quot;#ffffff&quot;&gt;Facebook&lt;/font&gt;" style="shape=rectangle;strokeColor=none;fillColor=none;linkText=;fontSize=17;fontColor=#0000ff;fontStyle=4;html=1;align=center;labelBackgroundColor=#000000;" parent="2" vertex="1">
                    <mxGeometry x="407.6938461538462" y="1080" width="67.69230769230771" height="15" as="geometry"/>
                </mxCell>
                <mxCell id="624" value="" style="group" vertex="1" connectable="0" parent="2">
                    <mxGeometry x="270" y="120" width="380" height="30" as="geometry"/>
                </mxCell>
                <mxCell id="617" value="&lt;font color=&quot;#bc855d&quot; style=&quot;font-size: 15px;&quot;&gt;ABOUT ME&lt;/font&gt;" style="text;html=1;strokeColor=none;fillColor=none;align=center;verticalAlign=middle;whiteSpace=wrap;rounded=0;labelBackgroundColor=none;strokeWidth=1;fontSize=17;fontColor=#FFFFFF;" vertex="1" parent="624">
                    <mxGeometry width="100" height="30" as="geometry"/>
                </mxCell>
                <mxCell id="618" value="&lt;font color=&quot;#bc855d&quot; style=&quot;font-size: 15px;&quot;&gt;PROJECTS&lt;/font&gt;" style="text;html=1;strokeColor=none;fillColor=none;align=center;verticalAlign=middle;whiteSpace=wrap;rounded=0;labelBackgroundColor=none;strokeWidth=1;fontSize=17;fontColor=#FFFFFF;" vertex="1" parent="624">
                    <mxGeometry x="90" width="100" height="30" as="geometry"/>
                </mxCell>
                <mxCell id="620" value="&lt;font color=&quot;#bc855d&quot; style=&quot;font-size: 15px;&quot;&gt;SERVICES&lt;/font&gt;" style="text;html=1;strokeColor=none;fillColor=none;align=center;verticalAlign=middle;whiteSpace=wrap;rounded=0;labelBackgroundColor=none;strokeWidth=1;fontSize=17;fontColor=#FFFFFF;" vertex="1" parent="624">
                    <mxGeometry x="180" width="100" height="30" as="geometry"/>
                </mxCell>
                <mxCell id="622" value="&lt;font color=&quot;#bc855d&quot; style=&quot;font-size: 15px;&quot;&gt;CONTACT ME&lt;/font&gt;" style="text;html=1;strokeColor=none;fillColor=none;align=center;verticalAlign=middle;whiteSpace=wrap;rounded=0;labelBackgroundColor=none;strokeWidth=1;fontSize=17;fontColor=#FFFFFF;" vertex="1" parent="624">
                    <mxGeometry x="280" width="100" height="30" as="geometry"/>
                </mxCell>
                <mxCell id="625" value="&lt;span style=&quot;font-size: 17px; text-align: left; background-color: rgb(51, 30, 37);&quot;&gt;Hi There!, I am Samuel Okoduwa&lt;/span&gt;&lt;br style=&quot;font-size: 17px; text-align: left;&quot;&gt;&lt;font style=&quot;font-size: 17px; text-align: left;&quot; color=&quot;#bc855d&quot;&gt;Software Engineer&lt;/font&gt;" style="text;html=1;strokeColor=none;fillColor=none;align=center;verticalAlign=middle;whiteSpace=wrap;rounded=0;labelBackgroundColor=none;strokeWidth=1;fontSize=15;fontColor=#FFFFFF;" vertex="1" parent="2">
                    <mxGeometry x="75" y="210" width="255" height="60" as="geometry"/>
                </mxCell>
                <mxCell id="626" value="&lt;b&gt;&lt;font style=&quot;font-size: 23px;&quot;&gt;PROJECTS&lt;/font&gt;&lt;/b&gt;" style="text;html=1;strokeColor=none;fillColor=none;align=center;verticalAlign=middle;whiteSpace=wrap;rounded=0;labelBackgroundColor=none;strokeWidth=1;fontSize=15;fontColor=#FFFFFF;" vertex="1" parent="2">
                    <mxGeometry x="250" y="460" width="170" height="30" as="geometry"/>
                </mxCell>
                <mxCell id="488" value="" style="group" vertex="1" connectable="0" parent="1">
                    <mxGeometry x="110" y="600" width="673.22" height="2470" as="geometry"/>
                </mxCell>
                <mxCell id="435" value="About Me" style="text;html=1;align=center;verticalAlign=middle;whiteSpace=wrap;rounded=0;fontSize=19;fillColor=#3C272E;fontColor=#ffffff;strokeColor=#432D57;" vertex="1" parent="488">
                    <mxGeometry width="670" height="30" as="geometry"/>
                </mxCell>
                <mxCell id="460" value="&lt;br&gt;&lt;br&gt;&lt;br&gt;&lt;br&gt;&lt;br&gt;&lt;br&gt;&lt;br&gt;&lt;br&gt;&lt;br&gt;&lt;br&gt;&lt;br&gt;&lt;br&gt;&lt;br&gt;&lt;br&gt;&lt;br&gt;&lt;br&gt;&lt;br&gt;&lt;br&gt;&lt;br&gt;&lt;br&gt;&lt;br&gt;&lt;br&gt;&lt;br&gt;&lt;br&gt;&lt;br&gt;&lt;br&gt;&lt;br&gt;&lt;br&gt;&lt;br&gt;&lt;br&gt;&lt;br&gt;&lt;br&gt;&lt;br&gt;&lt;br&gt;&lt;br&gt;&lt;br&gt;&lt;br&gt;&lt;br&gt;&lt;br&gt;&lt;br&gt;&lt;br&gt;&lt;br&gt;&lt;br&gt;&lt;br&gt;&lt;br&gt;&lt;br&gt;&lt;br&gt;&lt;br&gt;&lt;br&gt;&lt;br&gt;&lt;br&gt;&lt;br&gt;&lt;br&gt;&lt;br&gt;&lt;br&gt;&lt;br&gt;&lt;br&gt;&lt;br&gt;&lt;br&gt;&lt;br&gt;&lt;br&gt;&lt;br&gt;&lt;br&gt;&lt;br&gt;&lt;br&gt;&lt;br&gt;&lt;br&gt;&lt;br&gt;&lt;br&gt;&lt;br&gt;&lt;br&gt;&lt;br&gt;&lt;br&gt;&lt;br&gt;&lt;br&gt;&lt;br&gt;&lt;br&gt;" style="strokeWidth=1;shadow=0;dashed=0;align=center;html=1;shape=mxgraph.mockup.containers.browserWindow;rSize=0;strokeColor2=#008cff;strokeColor3=#c4c4c4;mainText=,;recursiveResize=0;strokeColor=default;fillColor=#331E25;gradientColor=none;" vertex="1" parent="488">
                    <mxGeometry y="980" width="673.22" height="1130" as="geometry"/>
                </mxCell>
                <mxCell id="461" value="My Portfolio" style="strokeWidth=1;shadow=0;dashed=0;align=center;html=1;shape=mxgraph.mockup.containers.anchor;fontSize=17;fontColor=#666666;align=left;" vertex="1" parent="460">
                    <mxGeometry x="60.90909090909091" y="12" width="111.66666666666667" height="26" as="geometry"/>
                </mxCell>
                <mxCell id="462" value="https://www.myportfolio.com" style="strokeWidth=1;shadow=0;dashed=0;align=center;html=1;shape=mxgraph.mockup.containers.anchor;rSize=0;fontSize=17;fontColor=#666666;align=left;" vertex="1" parent="460">
                    <mxGeometry x="131.96969696969697" y="60" width="253.78787878787878" height="26" as="geometry"/>
                </mxCell>
                <mxCell id="463" value="Line 1" style="strokeWidth=1;shadow=0;dashed=0;align=center;html=1;shape=mxgraph.mockup.text.textBox;fontColor=#666666;align=left;fontSize=17;spacingLeft=4;spacingTop=-3;strokeColor=#666666;mainText=" vertex="1" parent="460">
                    <mxGeometry x="4.0606060606060606" y="110" width="659.8484848484849" height="40" as="geometry"/>
                </mxCell>
                <mxCell id="469" value="" style="verticalLabelPosition=bottom;shadow=0;dashed=0;align=center;html=1;verticalAlign=top;strokeWidth=1;shape=mxgraph.mockup.graphics.simpleIcon;strokeColor=#999999;labelBackgroundColor=#1A1A1A;fontColor=#FFFFFF;fillColor=#1A1A1A;" vertex="1" parent="460">
                    <mxGeometry x="10.151515151515152" y="122.5" width="71.06060606060606" height="20" as="geometry"/>
                </mxCell>
                <mxCell id="470" value="&lt;b&gt;&lt;font color=&quot;#ffffff&quot;&gt;Logo&lt;/font&gt;&lt;/b&gt;" style="strokeWidth=1;shadow=0;dashed=0;align=center;html=1;shape=mxgraph.mockup.text.textBox;fontColor=#666666;align=left;fontSize=17;spacingLeft=4;spacingTop=-3;strokeColor=#666666;mainText=;labelBackgroundColor=#1A1A1A;fillColor=#1A1A1A;" vertex="1" parent="460">
                    <mxGeometry x="20.303030303030305" y="120" width="50.75757575757576" height="30" as="geometry"/>
                </mxCell>
                <mxCell id="474" value="&lt;font color=&quot;#ffffff&quot;&gt;&lt;span style=&quot;font-size: 19px; background-color: rgb(60, 39, 46);&quot;&gt;Contact Me&lt;/span&gt;&lt;/font&gt;" style="shape=rectangle;strokeColor=none;fillColor=none;linkText=;fontSize=17;fontColor=#0000ff;fontStyle=4;html=1;align=center;labelBackgroundColor=#000000;" vertex="1" parent="460">
                    <mxGeometry x="269.0151515151515" y="1030" width="111.66666666666667" height="30" as="geometry"/>
                </mxCell>
                <mxCell id="475" value="&lt;font color=&quot;#ffffff&quot;&gt;Github&lt;/font&gt;" style="shape=rectangle;strokeColor=none;fillColor=none;linkText=;fontSize=17;fontColor=#0000ff;fontStyle=4;html=1;align=center;labelBackgroundColor=#000000;" vertex="1" parent="460">
                    <mxGeometry x="286.5913286713287" y="1080" width="68.71794871794873" height="15" as="geometry"/>
                </mxCell>
                <mxCell id="476" value="&lt;font color=&quot;#ffffff&quot;&gt;Twitter&lt;/font&gt;" style="shape=rectangle;strokeColor=none;fillColor=none;linkText=;fontSize=17;fontColor=#0000ff;fontStyle=4;html=1;align=center;labelBackgroundColor=#000000;" vertex="1" parent="460">
                    <mxGeometry x="345.1554195804196" y="1080" width="68.71794871794873" height="15" as="geometry"/>
                </mxCell>
                <mxCell id="477" value="&lt;font color=&quot;#ffffff&quot;&gt;Linkined&lt;/font&gt;" style="shape=rectangle;strokeColor=none;fillColor=none;linkText=;fontSize=17;fontColor=#0000ff;fontStyle=4;html=1;align=center;labelBackgroundColor=#000000;" vertex="1" parent="460">
                    <mxGeometry x="224.504662004662" y="1080" width="68.71794871794873" height="15" as="geometry"/>
                </mxCell>
                <mxCell id="478" value="&lt;font color=&quot;#ffffff&quot;&gt;Facebook&lt;/font&gt;" style="shape=rectangle;strokeColor=none;fillColor=none;linkText=;fontSize=17;fontColor=#0000ff;fontStyle=4;html=1;align=center;labelBackgroundColor=#000000;" vertex="1" parent="460">
                    <mxGeometry x="413.8710256410257" y="1080" width="68.71794871794873" height="15" as="geometry"/>
                </mxCell>
                <mxCell id="493" value="&lt;font color=&quot;#ffffff&quot;&gt;samuel_okoduwa@yahoo.com&lt;/font&gt;" style="text;html=1;strokeColor=none;fillColor=none;align=center;verticalAlign=middle;whiteSpace=wrap;rounded=0;strokeWidth=1;fontSize=17;fontColor=#3f2727;" vertex="1" parent="460">
                    <mxGeometry x="131.97" y="310" width="178.03" height="30" as="geometry"/>
                </mxCell>
                <mxCell id="495" value="&lt;b style=&quot;text-align: left;&quot;&gt;&lt;font style=&quot;font-size: 32px;&quot;&gt;Contact Me&lt;/font&gt;&lt;/b&gt;" style="text;html=1;strokeColor=none;fillColor=none;align=center;verticalAlign=middle;whiteSpace=wrap;rounded=0;strokeWidth=1;fontSize=24;fontColor=#FFFFFF;" vertex="1" parent="460">
                    <mxGeometry x="40" y="250" width="179.09" height="30" as="geometry"/>
                </mxCell>
                <mxCell id="496" value="&lt;font style=&quot;font-size: 17px;&quot;&gt;+2348055529345&lt;/font&gt;" style="text;html=1;strokeColor=none;fillColor=none;align=center;verticalAlign=middle;whiteSpace=wrap;rounded=0;strokeWidth=1;fontSize=32;fontColor=#FFFFFF;" vertex="1" parent="460">
                    <mxGeometry x="40" y="340" width="260" height="20" as="geometry"/>
                </mxCell>
                <mxCell id="501" value="Your Email" style="strokeWidth=1;shadow=0;dashed=0;align=center;html=1;shape=mxgraph.mockup.text.textBox;fontColor=#666666;align=left;fontSize=17;spacingLeft=4;spacingTop=-3;strokeColor=#666666;mainText=;labelBackgroundColor=none;fillColor=#BC855D;" vertex="1" parent="460">
                    <mxGeometry x="380.68" y="310" width="270" height="30" as="geometry"/>
                </mxCell>
                <mxCell id="502" value="Your Message" style="strokeWidth=1;shadow=0;dashed=0;align=center;html=1;shape=mxgraph.mockup.text.textBox;fontColor=#666666;align=left;fontSize=17;spacingLeft=4;spacingTop=-3;strokeColor=#666666;mainText=;labelBackgroundColor=none;fillColor=#BC855D;labelPosition=center;verticalLabelPosition=middle;verticalAlign=middle;" vertex="1" parent="460">
                    <mxGeometry x="380.68" y="370" width="270" height="130" as="geometry"/>
                </mxCell>
                <mxCell id="503" value="Submit" style="strokeWidth=1;shadow=0;dashed=0;align=center;html=1;shape=mxgraph.mockup.buttons.button;strokeColor=#666666;fontColor=#ffffff;mainText=;buttonStyle=round;fontSize=17;fontStyle=1;fillColor=#BC855D;whiteSpace=wrap;labelBackgroundColor=none;" vertex="1" parent="460">
                    <mxGeometry x="380.68" y="520" width="129.32" height="30" as="geometry"/>
                </mxCell>
                <mxCell id="640" value="" style="group" vertex="1" connectable="0" parent="460">
                    <mxGeometry x="280.68" y="120" width="380" height="30" as="geometry"/>
                </mxCell>
                <mxCell id="641" value="&lt;font color=&quot;#bc855d&quot; style=&quot;font-size: 15px;&quot;&gt;ABOUT ME&lt;/font&gt;" style="text;html=1;strokeColor=none;fillColor=none;align=center;verticalAlign=middle;whiteSpace=wrap;rounded=0;labelBackgroundColor=none;strokeWidth=1;fontSize=17;fontColor=#FFFFFF;" vertex="1" parent="640">
                    <mxGeometry width="100" height="30" as="geometry"/>
                </mxCell>
                <mxCell id="642" value="&lt;font color=&quot;#bc855d&quot; style=&quot;font-size: 15px;&quot;&gt;PROJECTS&lt;/font&gt;" style="text;html=1;strokeColor=none;fillColor=none;align=center;verticalAlign=middle;whiteSpace=wrap;rounded=0;labelBackgroundColor=none;strokeWidth=1;fontSize=17;fontColor=#FFFFFF;" vertex="1" parent="640">
                    <mxGeometry x="90" width="100" height="30" as="geometry"/>
                </mxCell>
                <mxCell id="643" value="&lt;font color=&quot;#bc855d&quot; style=&quot;font-size: 15px;&quot;&gt;SERVICES&lt;/font&gt;" style="text;html=1;strokeColor=none;fillColor=none;align=center;verticalAlign=middle;whiteSpace=wrap;rounded=0;labelBackgroundColor=none;strokeWidth=1;fontSize=17;fontColor=#FFFFFF;" vertex="1" parent="640">
                    <mxGeometry x="180" width="100" height="30" as="geometry"/>
                </mxCell>
                <mxCell id="644" value="&lt;font color=&quot;#bc855d&quot; style=&quot;font-size: 15px;&quot;&gt;CONTACT ME&lt;/font&gt;" style="text;html=1;strokeColor=none;fillColor=none;align=center;verticalAlign=middle;whiteSpace=wrap;rounded=0;labelBackgroundColor=none;strokeWidth=1;fontSize=17;fontColor=#FFFFFF;" vertex="1" parent="640">
                    <mxGeometry x="280" width="100" height="30" as="geometry"/>
                </mxCell>
                <mxCell id="491" value="Contact Me" style="text;html=1;align=center;verticalAlign=middle;whiteSpace=wrap;rounded=0;fontSize=19;fillColor=#3C272E;fontColor=#ffffff;strokeColor=#432D57;" vertex="1" parent="488">
                    <mxGeometry y="970" width="670" height="30" as="geometry"/>
                </mxCell>
                <mxCell id="494" value="" style="verticalLabelPosition=bottom;shadow=0;dashed=0;align=center;html=1;verticalAlign=top;strokeWidth=1;shape=mxgraph.mockup.misc.mail2;strokeColor=#999999;fontSize=17;fontColor=#FFFFFF;fillColor=#3C272E;" vertex="1" parent="488">
                    <mxGeometry x="50" y="1300" width="40" height="10" as="geometry"/>
                </mxCell>
                <mxCell id="497" value="" style="strokeColor=#999999;verticalLabelPosition=bottom;shadow=0;dashed=0;verticalAlign=top;strokeWidth=2;html=1;shape=mxgraph.mockup.misc.volumeIcon;fontSize=17;fontColor=#FFFFFF;fillColor=#3C272E;" vertex="1" parent="488">
                    <mxGeometry x="50" y="1330" width="40" height="20" as="geometry"/>
                </mxCell>
                <mxCell id="499" value="Download CV" style="strokeWidth=1;shadow=0;dashed=0;align=center;html=1;shape=mxgraph.mockup.buttons.button;strokeColor=#666666;fontColor=#ffffff;mainText=;buttonStyle=round;fontSize=17;fontStyle=1;fillColor=#BC855D;whiteSpace=wrap;labelBackgroundColor=none;" vertex="1" parent="488">
                    <mxGeometry x="50" y="1370" width="150" height="40" as="geometry"/>
                </mxCell>
                <mxCell id="500" value="Your Name" style="strokeWidth=1;shadow=0;dashed=0;align=center;html=1;shape=mxgraph.mockup.text.textBox;fontColor=#666666;align=left;fontSize=17;spacingLeft=4;spacingTop=-3;strokeColor=#666666;mainText=;labelBackgroundColor=none;fillColor=#BC855D;" vertex="1" parent="488">
                    <mxGeometry x="380" y="1230" width="270" height="30" as="geometry"/>
                </mxCell>
                <mxCell id="390" value="&lt;br&gt;&lt;br&gt;&lt;br&gt;&lt;br&gt;&lt;br&gt;&lt;br&gt;&lt;br&gt;&lt;br&gt;&lt;br&gt;&lt;br&gt;&lt;br&gt;&lt;br&gt;&lt;br&gt;&lt;br&gt;&lt;br&gt;&lt;br&gt;&lt;br&gt;&lt;br&gt;&lt;br&gt;&lt;br&gt;&lt;br&gt;&lt;br&gt;&lt;br&gt;&lt;br&gt;&lt;br&gt;&lt;br&gt;&lt;br&gt;&lt;br&gt;&lt;br&gt;&lt;br&gt;&lt;br&gt;&lt;br&gt;&lt;br&gt;&lt;br&gt;&lt;br&gt;&lt;br&gt;&lt;br&gt;&lt;br&gt;&lt;br&gt;&lt;br&gt;&lt;br&gt;&lt;br&gt;&lt;br&gt;&lt;br&gt;&lt;br&gt;&lt;br&gt;&lt;br&gt;&lt;br&gt;&lt;br&gt;&lt;br&gt;&lt;br&gt;&lt;br&gt;&lt;br&gt;&lt;br&gt;&lt;br&gt;&lt;br&gt;&lt;br&gt;&lt;br&gt;&lt;br&gt;&lt;br&gt;&lt;br&gt;&lt;br&gt;&lt;br&gt;&lt;br&gt;&lt;br&gt;&lt;br&gt;&lt;br&gt;&lt;br&gt;&lt;br&gt;&lt;br&gt;&lt;br&gt;&lt;br&gt;&lt;br&gt;&lt;br&gt;&lt;br&gt;&lt;br&gt;&lt;br&gt;" style="strokeWidth=1;shadow=0;dashed=0;align=center;html=1;shape=mxgraph.mockup.containers.browserWindow;rSize=0;strokeColor2=#008cff;strokeColor3=#c4c4c4;mainText=,;recursiveResize=0;strokeColor=default;fillColor=#331E25;gradientColor=none;" vertex="1" parent="1">
                    <mxGeometry x="110" y="100" width="670" height="1435" as="geometry"/>
                </mxCell>
                <mxCell id="391" value="My Portfolio" style="strokeWidth=1;shadow=0;dashed=0;align=center;html=1;shape=mxgraph.mockup.containers.anchor;fontSize=17;fontColor=#666666;align=left;" vertex="1" parent="390">
                    <mxGeometry x="60" y="12" width="110" height="26" as="geometry"/>
                </mxCell>
                <mxCell id="392" value="https://www.myportfolio.com" style="strokeWidth=1;shadow=0;dashed=0;align=center;html=1;shape=mxgraph.mockup.containers.anchor;rSize=0;fontSize=17;fontColor=#666666;align=left;" vertex="1" parent="390">
                    <mxGeometry x="130" y="60" width="250" height="26" as="geometry"/>
                </mxCell>
                <mxCell id="393" value="Line 1" style="strokeWidth=1;shadow=0;dashed=0;align=center;html=1;shape=mxgraph.mockup.text.textBox;fontColor=#666666;align=left;fontSize=17;spacingLeft=4;spacingTop=-3;strokeColor=#666666;mainText=" vertex="1" parent="390">
                    <mxGeometry x="4" y="110" width="650" height="40" as="geometry"/>
                </mxCell>
                <mxCell id="399" value="" style="verticalLabelPosition=bottom;shadow=0;dashed=0;align=center;html=1;verticalAlign=top;strokeWidth=1;shape=mxgraph.mockup.graphics.simpleIcon;strokeColor=#999999;labelBackgroundColor=#1A1A1A;fontColor=#FFFFFF;fillColor=#1A1A1A;" vertex="1" parent="390">
                    <mxGeometry x="10" y="122.5" width="70" height="20" as="geometry"/>
                </mxCell>
                <mxCell id="400" value="&lt;b&gt;&lt;font color=&quot;#ffffff&quot;&gt;Logo&lt;/font&gt;&lt;/b&gt;" style="strokeWidth=1;shadow=0;dashed=0;align=center;html=1;shape=mxgraph.mockup.text.textBox;fontColor=#666666;align=left;fontSize=17;spacingLeft=4;spacingTop=-3;strokeColor=#666666;mainText=;labelBackgroundColor=#1A1A1A;fillColor=#1A1A1A;" vertex="1" parent="390">
                    <mxGeometry x="20" y="120" width="50" height="30" as="geometry"/>
                </mxCell>
                <mxCell id="652" value="" style="edgeStyle=none;html=1;fontSize=21;fontColor=#BC855D;" edge="1" parent="390" source="402" target="453">
                    <mxGeometry relative="1" as="geometry"/>
                </mxCell>
                <mxCell id="402" value="Lorem ipsum dolor sit amet, consectetur adipisicing elit, sed do eiusmod tempor incididunt ut labore et dolore magna aliqua. Ut enim ad minim veniam, quis nostrud exercitation ullamco laboris nisi ut aliquip ex" style="text;spacingTop=-5;whiteSpace=wrap;html=1;align=left;fontSize=12;fontFamily=Helvetica;fillColor=none;strokeColor=none;labelBackgroundColor=#331E25;fontColor=#BC855D;" vertex="1" parent="390">
                    <mxGeometry x="283.85" y="260" width="250" height="80" as="geometry"/>
                </mxCell>
                <mxCell id="405" value="&lt;b&gt;My Image&lt;/b&gt;" style="strokeWidth=1;shadow=0;dashed=0;align=center;html=1;shape=mxgraph.mockup.text.textBox;fontColor=#666666;align=left;fontSize=17;spacingLeft=4;spacingTop=-3;strokeColor=#666666;mainText=;labelBackgroundColor=#331E25;fillColor=#321D26;" vertex="1" parent="390">
                    <mxGeometry x="30" y="220" width="230" height="510" as="geometry"/>
                </mxCell>
                <mxCell id="430" value="&lt;font color=&quot;#ffffff&quot;&gt;&lt;span style=&quot;font-size: 19px; background-color: rgb(60, 39, 46);&quot;&gt;Contact Me&lt;/span&gt;&lt;/font&gt;" style="shape=rectangle;strokeColor=none;fillColor=none;linkText=;fontSize=17;fontColor=#0000ff;fontStyle=4;html=1;align=center;labelBackgroundColor=#000000;" vertex="1" parent="390">
                    <mxGeometry x="273.85" y="1350" width="110" height="30" as="geometry"/>
                </mxCell>
                <mxCell id="431" value="&lt;font color=&quot;#ffffff&quot;&gt;Github&lt;/font&gt;" style="shape=rectangle;strokeColor=none;fillColor=none;linkText=;fontSize=17;fontColor=#0000ff;fontStyle=4;html=1;align=center;labelBackgroundColor=#000000;" vertex="1" parent="390">
                    <mxGeometry x="291.16384615384624" y="1400" width="67.69230769230771" height="15" as="geometry"/>
                </mxCell>
                <mxCell id="432" value="&lt;font color=&quot;#ffffff&quot;&gt;Twitter&lt;/font&gt;" style="shape=rectangle;strokeColor=none;fillColor=none;linkText=;fontSize=17;fontColor=#0000ff;fontStyle=4;html=1;align=center;labelBackgroundColor=#000000;" vertex="1" parent="390">
                    <mxGeometry x="348.85384615384623" y="1400" width="67.69230769230771" height="15" as="geometry"/>
                </mxCell>
                <mxCell id="433" value="&lt;font color=&quot;#ffffff&quot;&gt;Linkined&lt;/font&gt;" style="shape=rectangle;strokeColor=none;fillColor=none;linkText=;fontSize=17;fontColor=#0000ff;fontStyle=4;html=1;align=center;labelBackgroundColor=#000000;" vertex="1" parent="390">
                    <mxGeometry x="230.00384615384615" y="1400" width="67.69230769230771" height="15" as="geometry"/>
                </mxCell>
                <mxCell id="434" value="&lt;font color=&quot;#ffffff&quot;&gt;Facebook&lt;/font&gt;" style="shape=rectangle;strokeColor=none;fillColor=none;linkText=;fontSize=17;fontColor=#0000ff;fontStyle=4;html=1;align=center;labelBackgroundColor=#000000;" vertex="1" parent="390">
                    <mxGeometry x="416.54384615384623" y="1400" width="67.69230769230771" height="15" as="geometry"/>
                </mxCell>
                <mxCell id="449" value="&lt;font style=&quot;&quot; color=&quot;#ffffff&quot;&gt;Skills&lt;/font&gt;" style="strokeWidth=1;shadow=0;dashed=0;align=center;html=1;shape=mxgraph.mockup.text.textBox;fontColor=#666666;align=left;fontSize=17;spacingLeft=4;spacingTop=-3;strokeColor=#666666;mainText=;fillColor=#3C272E;" vertex="1" parent="390">
                    <mxGeometry x="285" y="380" width="55" height="30" as="geometry"/>
                </mxCell>
                <mxCell id="450" value="" style="verticalLabelPosition=bottom;shadow=0;dashed=0;align=center;html=1;verticalAlign=top;strokeWidth=1;shape=mxgraph.mockup.markup.line;strokeColor=#BC855D;fontColor=#666666;fillColor=#3C272E;" vertex="1" parent="390">
                    <mxGeometry x="285" y="400" width="50" height="20" as="geometry"/>
                </mxCell>
                <mxCell id="451" value="&lt;font style=&quot;&quot; color=&quot;#ffffff&quot;&gt;Experience&lt;/font&gt;" style="strokeWidth=1;shadow=0;dashed=0;align=center;html=1;shape=mxgraph.mockup.text.textBox;fontColor=#666666;align=left;fontSize=17;spacingLeft=4;spacingTop=-3;strokeColor=#666666;mainText=;fillColor=#3C272E;" vertex="1" parent="390">
                    <mxGeometry x="350" y="380" width="94.61" height="30" as="geometry"/>
                </mxCell>
                <mxCell id="452" value="&lt;font style=&quot;&quot; color=&quot;#ffffff&quot;&gt;Education&lt;/font&gt;" style="strokeWidth=1;shadow=0;dashed=0;align=center;html=1;shape=mxgraph.mockup.text.textBox;fontColor=#666666;align=left;fontSize=17;spacingLeft=4;spacingTop=-3;strokeColor=#666666;mainText=;fillColor=#3C272E;" vertex="1" parent="390">
                    <mxGeometry x="450" y="380" width="90" height="30" as="geometry"/>
                </mxCell>
                <mxCell id="453" value="&lt;h1&gt;&lt;span style=&quot;font-weight: normal; color: rgb(255, 255, 255); background-color: initial;&quot;&gt;&lt;font style=&quot;font-size: 17px;&quot;&gt;Software Engineering and DevOps&lt;/font&gt;&lt;/span&gt;&lt;/h1&gt;&lt;ul&gt;&lt;li&gt;&lt;span style=&quot;background-color: rgb(51, 30, 37); color: rgb(188, 133, 93);&quot;&gt;Lorem ipsum dolor sit amet, consectetur adipisicing elit, sed do eiusmod tempor incididunt ut labore et dolore magna aliqua.&lt;/span&gt;&lt;/li&gt;&lt;/ul&gt;" style="text;html=1;strokeColor=none;fillColor=none;spacing=5;spacingTop=-20;whiteSpace=wrap;overflow=hidden;rounded=0;fontColor=#FF0000;strokeWidth=1;" vertex="1" parent="390">
                    <mxGeometry x="290" y="420" width="280" height="100" as="geometry"/>
                </mxCell>
                <mxCell id="454" value="&lt;h1&gt;&lt;font color=&quot;#ffffff&quot;&gt;&lt;span style=&quot;font-size: 17px; font-weight: 400;&quot;&gt;Techical Support&lt;/span&gt;&lt;/font&gt;&lt;/h1&gt;&lt;ul&gt;&lt;li&gt;&lt;span style=&quot;color: rgb(188, 133, 93); background-color: rgb(51, 30, 37);&quot;&gt;Lorem ipsum dolor sit amet, consectetur adipisicing elit, sed do eiusmod tempor incididunt ut labore et dolore magna aliqua.&lt;/span&gt;&lt;/li&gt;&lt;/ul&gt;" style="text;html=1;strokeColor=none;fillColor=none;spacing=5;spacingTop=-20;whiteSpace=wrap;overflow=hidden;rounded=0;fontColor=#FF0000;strokeWidth=1;" vertex="1" parent="390">
                    <mxGeometry x="290" y="550" width="280" height="100" as="geometry"/>
                </mxCell>
                <mxCell id="455" value="&lt;h1&gt;&lt;font color=&quot;#ffffff&quot;&gt;&lt;span style=&quot;font-size: 17px; font-weight: 400;&quot;&gt;Mentorship&lt;/span&gt;&lt;/font&gt;&lt;/h1&gt;&lt;ul&gt;&lt;li&gt;&lt;span style=&quot;color: rgb(188, 133, 93); background-color: rgb(51, 30, 37);&quot;&gt;Lorem ipsum dolor sit amet, consectetur adipisicing elit, sed do eiusmod tempor incididunt ut labore et dolore magna aliqua.&lt;/span&gt;&lt;/li&gt;&lt;/ul&gt;" style="text;html=1;strokeColor=none;fillColor=none;spacing=5;spacingTop=-20;whiteSpace=wrap;overflow=hidden;rounded=0;fontColor=#FF0000;strokeWidth=1;" vertex="1" parent="390">
                    <mxGeometry x="290.01" y="670" width="280" height="100" as="geometry"/>
                </mxCell>
                <mxCell id="458" value="&lt;font style=&quot;&quot; color=&quot;#ffffff&quot;&gt;Certifications&lt;/font&gt;" style="strokeWidth=1;shadow=0;dashed=0;align=center;html=1;shape=mxgraph.mockup.text.textBox;fontColor=#666666;align=left;fontSize=17;spacingLeft=4;spacingTop=-3;strokeColor=#666666;mainText=;fillColor=#3C272E;" vertex="1" parent="390">
                    <mxGeometry x="545" y="380" width="105" height="30" as="geometry"/>
                </mxCell>
                <mxCell id="459" value="&lt;h1&gt;&lt;font color=&quot;#ffffff&quot;&gt;&lt;span style=&quot;font-size: 17px; font-weight: 400;&quot;&gt;Interpersonal Skills&lt;/span&gt;&lt;/font&gt;&lt;/h1&gt;&lt;ul&gt;&lt;li&gt;&lt;span style=&quot;color: rgb(188, 133, 93); background-color: rgb(51, 30, 37);&quot;&gt;Lorem ipsum dolor sit amet, consectetur adipisicing elit, sed do eiusmod tempor incididunt ut labore et dolore magna aliqua.&lt;/span&gt;&lt;/li&gt;&lt;/ul&gt;" style="text;html=1;strokeColor=none;fillColor=none;spacing=5;spacingTop=-20;whiteSpace=wrap;overflow=hidden;rounded=0;fontColor=#FF0000;strokeWidth=1;" vertex="1" parent="390">
                    <mxGeometry x="300" y="820" width="280" height="100" as="geometry"/>
                </mxCell>
                <mxCell id="628" value="&lt;b&gt;About Me&lt;/b&gt;" style="text;html=1;strokeColor=none;fillColor=none;align=center;verticalAlign=middle;whiteSpace=wrap;rounded=0;labelBackgroundColor=none;strokeWidth=1;fontSize=23;fontColor=#FFFFFF;" vertex="1" parent="390">
                    <mxGeometry x="348.85" y="220" width="120" height="30" as="geometry"/>
                </mxCell>
                <mxCell id="630" value="" style="group" vertex="1" connectable="0" parent="390">
                    <mxGeometry x="260" y="120" width="380" height="30" as="geometry"/>
                </mxCell>
                <mxCell id="631" value="&lt;font color=&quot;#bc855d&quot; style=&quot;font-size: 15px;&quot;&gt;ABOUT ME&lt;/font&gt;" style="text;html=1;strokeColor=none;fillColor=none;align=center;verticalAlign=middle;whiteSpace=wrap;rounded=0;labelBackgroundColor=none;strokeWidth=1;fontSize=17;fontColor=#FFFFFF;" vertex="1" parent="630">
                    <mxGeometry width="100" height="30" as="geometry"/>
                </mxCell>
                <mxCell id="632" value="&lt;font color=&quot;#bc855d&quot; style=&quot;font-size: 15px;&quot;&gt;PROJECTS&lt;/font&gt;" style="text;html=1;strokeColor=none;fillColor=none;align=center;verticalAlign=middle;whiteSpace=wrap;rounded=0;labelBackgroundColor=none;strokeWidth=1;fontSize=17;fontColor=#FFFFFF;" vertex="1" parent="630">
                    <mxGeometry x="90" width="100" height="30" as="geometry"/>
                </mxCell>
                <mxCell id="633" value="&lt;font color=&quot;#bc855d&quot; style=&quot;font-size: 15px;&quot;&gt;SERVICES&lt;/font&gt;" style="text;html=1;strokeColor=none;fillColor=none;align=center;verticalAlign=middle;whiteSpace=wrap;rounded=0;labelBackgroundColor=none;strokeWidth=1;fontSize=17;fontColor=#FFFFFF;" vertex="1" parent="630">
                    <mxGeometry x="180" width="100" height="30" as="geometry"/>
                </mxCell>
                <mxCell id="634" value="&lt;font color=&quot;#bc855d&quot; style=&quot;font-size: 15px;&quot;&gt;CONTACT ME&lt;/font&gt;" style="text;html=1;strokeColor=none;fillColor=none;align=center;verticalAlign=middle;whiteSpace=wrap;rounded=0;labelBackgroundColor=none;strokeWidth=1;fontSize=17;fontColor=#FFFFFF;" vertex="1" parent="630">
                    <mxGeometry x="280" width="100" height="30" as="geometry"/>
                </mxCell>
                <mxCell id="10" value="Home Page" style="text;html=1;align=center;verticalAlign=middle;whiteSpace=wrap;rounded=0;fontSize=19;fillColor=#3C272E;fontColor=#ffffff;strokeColor=#432D57;" parent="1" vertex="1">
                    <mxGeometry x="110" y="-1130" width="670" height="30" as="geometry"/>
                </mxCell>
                <mxCell id="490" value="About Me" style="text;html=1;align=center;verticalAlign=middle;whiteSpace=wrap;rounded=0;fontSize=19;fillColor=#3C272E;fontColor=#ffffff;strokeColor=#432D57;" vertex="1" parent="1">
                    <mxGeometry x="110" y="70" width="670" height="30" as="geometry"/>
                </mxCell>
                <mxCell id="554" value="" style="group" vertex="1" connectable="0" parent="1">
                    <mxGeometry x="110" y="1810" width="670" height="2470" as="geometry"/>
                </mxCell>
                <mxCell id="556" value="&lt;br&gt;&lt;br&gt;&lt;br&gt;&lt;br&gt;&lt;br&gt;&lt;br&gt;&lt;br&gt;&lt;br&gt;&lt;br&gt;&lt;br&gt;&lt;br&gt;&lt;br&gt;&lt;br&gt;&lt;br&gt;&lt;br&gt;&lt;br&gt;&lt;br&gt;&lt;br&gt;&lt;br&gt;&lt;br&gt;&lt;br&gt;&lt;br&gt;&lt;br&gt;&lt;br&gt;&lt;br&gt;&lt;br&gt;&lt;br&gt;&lt;br&gt;&lt;br&gt;&lt;br&gt;&lt;br&gt;&lt;br&gt;&lt;br&gt;&lt;br&gt;&lt;br&gt;&lt;br&gt;&lt;br&gt;&lt;br&gt;&lt;br&gt;&lt;br&gt;&lt;br&gt;&lt;br&gt;&lt;br&gt;&lt;br&gt;&lt;br&gt;&lt;br&gt;&lt;br&gt;&lt;br&gt;&lt;br&gt;&lt;br&gt;&lt;br&gt;&lt;br&gt;&lt;br&gt;&lt;br&gt;&lt;br&gt;&lt;br&gt;&lt;br&gt;&lt;br&gt;&lt;br&gt;&lt;br&gt;&lt;br&gt;&lt;br&gt;&lt;br&gt;&lt;br&gt;&lt;br&gt;&lt;br&gt;&lt;br&gt;&lt;br&gt;&lt;br&gt;&lt;br&gt;&lt;br&gt;&lt;br&gt;&lt;br&gt;&lt;br&gt;&lt;br&gt;&lt;br&gt;&lt;br&gt;" style="strokeWidth=1;shadow=0;dashed=0;align=center;html=1;shape=mxgraph.mockup.containers.browserWindow;rSize=0;strokeColor2=#008cff;strokeColor3=#c4c4c4;mainText=,;recursiveResize=0;strokeColor=default;fillColor=#331E25;gradientColor=none;" vertex="1" parent="554">
                    <mxGeometry y="980" width="670" height="1130" as="geometry"/>
                </mxCell>
                <mxCell id="557" value="My Portfolio" style="strokeWidth=1;shadow=0;dashed=0;align=center;html=1;shape=mxgraph.mockup.containers.anchor;fontSize=17;fontColor=#666666;align=left;" vertex="1" parent="556">
                    <mxGeometry x="60.90909090909091" y="12" width="111.66666666666667" height="26" as="geometry"/>
                </mxCell>
                <mxCell id="558" value="https://www.myportfolio.com" style="strokeWidth=1;shadow=0;dashed=0;align=center;html=1;shape=mxgraph.mockup.containers.anchor;rSize=0;fontSize=17;fontColor=#666666;align=left;" vertex="1" parent="556">
                    <mxGeometry x="131.96969696969697" y="60" width="253.78787878787878" height="26" as="geometry"/>
                </mxCell>
                <mxCell id="559" value="Line 1" style="strokeWidth=1;shadow=0;dashed=0;align=center;html=1;shape=mxgraph.mockup.text.textBox;fontColor=#666666;align=left;fontSize=17;spacingLeft=4;spacingTop=-3;strokeColor=#666666;mainText=" vertex="1" parent="556">
                    <mxGeometry x="4.0606060606060606" y="110" width="659.8484848484849" height="40" as="geometry"/>
                </mxCell>
                <mxCell id="565" value="" style="verticalLabelPosition=bottom;shadow=0;dashed=0;align=center;html=1;verticalAlign=top;strokeWidth=1;shape=mxgraph.mockup.graphics.simpleIcon;strokeColor=#999999;labelBackgroundColor=#1A1A1A;fontColor=#FFFFFF;fillColor=#1A1A1A;" vertex="1" parent="556">
                    <mxGeometry x="10.151515151515152" y="122.5" width="71.06060606060606" height="20" as="geometry"/>
                </mxCell>
                <mxCell id="566" value="&lt;b&gt;&lt;font color=&quot;#ffffff&quot;&gt;Logo&lt;/font&gt;&lt;/b&gt;" style="strokeWidth=1;shadow=0;dashed=0;align=center;html=1;shape=mxgraph.mockup.text.textBox;fontColor=#666666;align=left;fontSize=17;spacingLeft=4;spacingTop=-3;strokeColor=#666666;mainText=;labelBackgroundColor=#1A1A1A;fillColor=#1A1A1A;" vertex="1" parent="556">
                    <mxGeometry x="20.303030303030305" y="120" width="50.75757575757576" height="30" as="geometry"/>
                </mxCell>
                <mxCell id="567" value="&lt;font color=&quot;#ffffff&quot;&gt;&lt;span style=&quot;font-size: 19px; background-color: rgb(60, 39, 46);&quot;&gt;Contact Me&lt;/span&gt;&lt;/font&gt;" style="shape=rectangle;strokeColor=none;fillColor=none;linkText=;fontSize=17;fontColor=#0000ff;fontStyle=4;html=1;align=center;labelBackgroundColor=#000000;" vertex="1" parent="556">
                    <mxGeometry x="269.0151515151515" y="1030" width="111.66666666666667" height="30" as="geometry"/>
                </mxCell>
                <mxCell id="568" value="&lt;font color=&quot;#ffffff&quot;&gt;Github&lt;/font&gt;" style="shape=rectangle;strokeColor=none;fillColor=none;linkText=;fontSize=17;fontColor=#0000ff;fontStyle=4;html=1;align=center;labelBackgroundColor=#000000;" vertex="1" parent="556">
                    <mxGeometry x="286.5913286713287" y="1080" width="68.71794871794873" height="15" as="geometry"/>
                </mxCell>
                <mxCell id="569" value="&lt;font color=&quot;#ffffff&quot;&gt;Twitter&lt;/font&gt;" style="shape=rectangle;strokeColor=none;fillColor=none;linkText=;fontSize=17;fontColor=#0000ff;fontStyle=4;html=1;align=center;labelBackgroundColor=#000000;" vertex="1" parent="556">
                    <mxGeometry x="345.1554195804196" y="1080" width="68.71794871794873" height="15" as="geometry"/>
                </mxCell>
                <mxCell id="570" value="&lt;font color=&quot;#ffffff&quot;&gt;Linkined&lt;/font&gt;" style="shape=rectangle;strokeColor=none;fillColor=none;linkText=;fontSize=17;fontColor=#0000ff;fontStyle=4;html=1;align=center;labelBackgroundColor=#000000;" vertex="1" parent="556">
                    <mxGeometry x="224.504662004662" y="1080" width="68.71794871794873" height="15" as="geometry"/>
                </mxCell>
                <mxCell id="571" value="&lt;font color=&quot;#ffffff&quot;&gt;Facebook&lt;/font&gt;" style="shape=rectangle;strokeColor=none;fillColor=none;linkText=;fontSize=17;fontColor=#0000ff;fontStyle=4;html=1;align=center;labelBackgroundColor=#000000;" vertex="1" parent="556">
                    <mxGeometry x="413.8710256410257" y="1080" width="68.71794871794873" height="15" as="geometry"/>
                </mxCell>
                <mxCell id="505" value="" style="group" vertex="1" connectable="0" parent="556">
                    <mxGeometry x="28.98" y="290" width="130" height="380" as="geometry"/>
                </mxCell>
                <mxCell id="506" value="" style="strokeWidth=1;shadow=0;dashed=0;align=center;html=1;shape=mxgraph.mockup.text.textBox;fontColor=#FFFFFF;align=left;fontSize=17;spacingLeft=4;spacingTop=-3;strokeColor=#666666;mainText=;labelBackgroundColor=#331E25;fillColor=#331E25;" vertex="1" parent="505">
                    <mxGeometry width="130" height="380" as="geometry"/>
                </mxCell>
                <mxCell id="507" value="&lt;h1 style=&quot;text-align: center;&quot;&gt;&lt;span style=&quot;font-size: 16px; font-weight: 400;&quot;&gt;Web Development&lt;/span&gt;&lt;/h1&gt;&lt;p&gt;Lorem ipsum dolor sit amet, consectetur adipisicing elit, sed do eiusmod tempor incididunt ut labore et dolore magna aliqua.&lt;/p&gt;" style="text;html=1;strokeColor=none;fillColor=none;spacing=5;spacingTop=-20;whiteSpace=wrap;overflow=hidden;rounded=0;labelBackgroundColor=#321D26;fontColor=#FFFFFF;" vertex="1" parent="505">
                    <mxGeometry x="5" y="110" width="115" height="260" as="geometry"/>
                </mxCell>
                <mxCell id="508" value="&lt;font style=&quot;font-size: 11px;&quot; color=&quot;#ffffff&quot;&gt;Click Here to View&lt;/font&gt;" style="shape=rectangle;strokeColor=none;fillColor=none;linkText=;fontSize=17;fontColor=#0000ff;fontStyle=4;html=1;align=center;labelBackgroundColor=#000000;" vertex="1" parent="505">
                    <mxGeometry x="10" y="330" width="110" height="30" as="geometry"/>
                </mxCell>
                <mxCell id="509" value="&lt;span style=&quot;font-size: 12px;&quot;&gt;&lt;b&gt;SERVICE IMAGE&lt;/b&gt;&lt;/span&gt;" style="strokeWidth=1;shadow=0;dashed=0;align=center;html=1;shape=mxgraph.mockup.text.textBox;fontColor=#666666;align=left;fontSize=17;spacingLeft=4;spacingTop=-3;strokeColor=#666666;mainText=;labelBackgroundColor=#331E25;fillColor=#321D26;" vertex="1" parent="505">
                    <mxGeometry x="5" y="10" width="120" height="90" as="geometry"/>
                </mxCell>
                <mxCell id="510" value="" style="group" vertex="1" connectable="0" parent="556">
                    <mxGeometry x="188.98" y="290" width="130" height="380" as="geometry"/>
                </mxCell>
                <mxCell id="511" value="" style="strokeWidth=1;shadow=0;dashed=0;align=center;html=1;shape=mxgraph.mockup.text.textBox;fontColor=#FFFFFF;align=left;fontSize=17;spacingLeft=4;spacingTop=-3;strokeColor=#666666;mainText=;labelBackgroundColor=#331E25;fillColor=#331E25;" vertex="1" parent="510">
                    <mxGeometry width="130" height="380" as="geometry"/>
                </mxCell>
                <mxCell id="512" value="&lt;h1 style=&quot;text-align: center;&quot;&gt;&lt;span style=&quot;font-size: 18px; font-weight: 400;&quot;&gt;Application Development&lt;/span&gt;&lt;/h1&gt;&lt;p&gt;Lorem ipsum dolor sit amet, consectetur adipisicing elit, sed do eiusmod tempor incididunt ut labore et dolore magna aliqua.&lt;/p&gt;" style="text;html=1;strokeColor=none;fillColor=none;spacing=5;spacingTop=-20;whiteSpace=wrap;overflow=hidden;rounded=0;labelBackgroundColor=#321D26;fontColor=#FFFFFF;" vertex="1" parent="510">
                    <mxGeometry x="5" y="110" width="115" height="260" as="geometry"/>
                </mxCell>
                <mxCell id="513" value="&lt;font style=&quot;font-size: 11px;&quot; color=&quot;#ffffff&quot;&gt;Click Here to View&lt;/font&gt;" style="shape=rectangle;strokeColor=none;fillColor=none;linkText=;fontSize=17;fontColor=#0000ff;fontStyle=4;html=1;align=center;labelBackgroundColor=#000000;" vertex="1" parent="510">
                    <mxGeometry x="10" y="330" width="110" height="30" as="geometry"/>
                </mxCell>
                <mxCell id="514" value="&lt;b style=&quot;font-size: 12px;&quot;&gt;SERVICE IMAGE&lt;/b&gt;" style="strokeWidth=1;shadow=0;dashed=0;align=center;html=1;shape=mxgraph.mockup.text.textBox;fontColor=#666666;align=left;fontSize=17;spacingLeft=4;spacingTop=-3;strokeColor=#666666;mainText=;labelBackgroundColor=#331E25;fillColor=#321D26;" vertex="1" parent="510">
                    <mxGeometry x="5" y="10" width="120" height="90" as="geometry"/>
                </mxCell>
                <mxCell id="515" value="" style="group" vertex="1" connectable="0" parent="556">
                    <mxGeometry x="348.98" y="290" width="130" height="380" as="geometry"/>
                </mxCell>
                <mxCell id="516" value="" style="strokeWidth=1;shadow=0;dashed=0;align=center;html=1;shape=mxgraph.mockup.text.textBox;fontColor=#FFFFFF;align=left;fontSize=17;spacingLeft=4;spacingTop=-3;strokeColor=#666666;mainText=;labelBackgroundColor=#331E25;fillColor=#331E25;" vertex="1" parent="515">
                    <mxGeometry width="130" height="380" as="geometry"/>
                </mxCell>
                <mxCell id="517" value="&lt;h1 style=&quot;text-align: center;&quot;&gt;&lt;font style=&quot;font-weight: normal; font-size: 18px;&quot;&gt;Web/App Hosting&lt;/font&gt;&lt;/h1&gt;&lt;p&gt;Lorem ipsum dolor sit amet, consectetur adipisicing elit, sed do eiusmod tempor incididunt ut labore et dolore magna aliqua.&lt;/p&gt;" style="text;html=1;strokeColor=none;fillColor=none;spacing=5;spacingTop=-20;whiteSpace=wrap;overflow=hidden;rounded=0;labelBackgroundColor=#321D26;fontColor=#FFFFFF;" vertex="1" parent="515">
                    <mxGeometry x="5" y="110" width="115" height="260" as="geometry"/>
                </mxCell>
                <mxCell id="518" value="&lt;font style=&quot;font-size: 11px;&quot; color=&quot;#ffffff&quot;&gt;Click Here to View&lt;/font&gt;" style="shape=rectangle;strokeColor=none;fillColor=none;linkText=;fontSize=17;fontColor=#0000ff;fontStyle=4;html=1;align=center;labelBackgroundColor=#000000;" vertex="1" parent="515">
                    <mxGeometry x="10" y="330" width="110" height="30" as="geometry"/>
                </mxCell>
                <mxCell id="519" value="&lt;b style=&quot;font-size: 12px;&quot;&gt;SERVICE IMAGE&lt;/b&gt;" style="strokeWidth=1;shadow=0;dashed=0;align=center;html=1;shape=mxgraph.mockup.text.textBox;fontColor=#666666;align=left;fontSize=17;spacingLeft=4;spacingTop=-3;strokeColor=#666666;mainText=;labelBackgroundColor=#331E25;fillColor=#321D26;" vertex="1" parent="515">
                    <mxGeometry x="5" y="10" width="120" height="90" as="geometry"/>
                </mxCell>
                <mxCell id="520" value="" style="group" vertex="1" connectable="0" parent="556">
                    <mxGeometry x="508.98" y="290" width="130" height="380" as="geometry"/>
                </mxCell>
                <mxCell id="521" value="" style="strokeWidth=1;shadow=0;dashed=0;align=center;html=1;shape=mxgraph.mockup.text.textBox;fontColor=#FFFFFF;align=left;fontSize=17;spacingLeft=4;spacingTop=-3;strokeColor=#666666;mainText=;labelBackgroundColor=#331E25;fillColor=#331E25;" vertex="1" parent="520">
                    <mxGeometry width="130" height="380" as="geometry"/>
                </mxCell>
                <mxCell id="522" value="&lt;h1 style=&quot;text-align: center;&quot;&gt;&lt;span style=&quot;font-weight: normal;&quot;&gt;&lt;font style=&quot;font-size: 18px;&quot;&gt;Training and Mentorship&lt;/font&gt;&lt;/span&gt;&lt;/h1&gt;&lt;p&gt;Lorem ipsum dolor sit amet, consectetur adipisicing elit, sed do eiusmod tempor incididunt ut labore et dolore magna aliqua.&lt;/p&gt;" style="text;html=1;strokeColor=none;fillColor=none;spacing=5;spacingTop=-20;whiteSpace=wrap;overflow=hidden;rounded=0;labelBackgroundColor=#321D26;fontColor=#FFFFFF;" vertex="1" parent="520">
                    <mxGeometry x="5" y="110" width="115" height="260" as="geometry"/>
                </mxCell>
                <mxCell id="523" value="&lt;font style=&quot;font-size: 11px;&quot; color=&quot;#ffffff&quot;&gt;Click Here to View&lt;/font&gt;" style="shape=rectangle;strokeColor=none;fillColor=none;linkText=;fontSize=17;fontColor=#0000ff;fontStyle=4;html=1;align=center;labelBackgroundColor=#000000;" vertex="1" parent="520">
                    <mxGeometry x="10" y="330" width="110" height="30" as="geometry"/>
                </mxCell>
                <mxCell id="524" value="&lt;b style=&quot;font-size: 12px;&quot;&gt;SERVICE IMAGE&lt;/b&gt;" style="strokeWidth=1;shadow=0;dashed=0;align=center;html=1;shape=mxgraph.mockup.text.textBox;fontColor=#666666;align=left;fontSize=17;spacingLeft=4;spacingTop=-3;strokeColor=#666666;mainText=;labelBackgroundColor=#331E25;fillColor=#321D26;" vertex="1" parent="520">
                    <mxGeometry x="5" y="10" width="120" height="90" as="geometry"/>
                </mxCell>
                <mxCell id="614" value="&lt;b style=&quot;text-align: left;&quot;&gt;&lt;font style=&quot;font-size: 32px;&quot;&gt;Services&lt;/font&gt;&lt;/b&gt;" style="text;html=1;strokeColor=none;fillColor=none;align=center;verticalAlign=middle;whiteSpace=wrap;rounded=0;strokeWidth=1;fontSize=24;fontColor=#FFFFFF;" vertex="1" parent="556">
                    <mxGeometry x="220" y="210" width="179.09" height="30" as="geometry"/>
                </mxCell>
                <mxCell id="645" value="" style="group" vertex="1" connectable="0" parent="556">
                    <mxGeometry x="258.98" y="112.5" width="380" height="30" as="geometry"/>
                </mxCell>
                <mxCell id="646" value="&lt;font color=&quot;#bc855d&quot; style=&quot;font-size: 15px;&quot;&gt;ABOUT ME&lt;/font&gt;" style="text;html=1;strokeColor=none;fillColor=none;align=center;verticalAlign=middle;whiteSpace=wrap;rounded=0;labelBackgroundColor=none;strokeWidth=1;fontSize=17;fontColor=#FFFFFF;" vertex="1" parent="645">
                    <mxGeometry width="100" height="30" as="geometry"/>
                </mxCell>
                <mxCell id="647" value="&lt;font color=&quot;#bc855d&quot; style=&quot;font-size: 15px;&quot;&gt;PROJECTS&lt;/font&gt;" style="text;html=1;strokeColor=none;fillColor=none;align=center;verticalAlign=middle;whiteSpace=wrap;rounded=0;labelBackgroundColor=none;strokeWidth=1;fontSize=17;fontColor=#FFFFFF;" vertex="1" parent="645">
                    <mxGeometry x="90" width="100" height="30" as="geometry"/>
                </mxCell>
                <mxCell id="648" value="&lt;font color=&quot;#bc855d&quot; style=&quot;font-size: 15px;&quot;&gt;SERVICES&lt;/font&gt;" style="text;html=1;strokeColor=none;fillColor=none;align=center;verticalAlign=middle;whiteSpace=wrap;rounded=0;labelBackgroundColor=none;strokeWidth=1;fontSize=17;fontColor=#FFFFFF;" vertex="1" parent="645">
                    <mxGeometry x="180" width="100" height="30" as="geometry"/>
                </mxCell>
                <mxCell id="649" value="&lt;font color=&quot;#bc855d&quot; style=&quot;font-size: 15px;&quot;&gt;CONTACT ME&lt;/font&gt;" style="text;html=1;strokeColor=none;fillColor=none;align=center;verticalAlign=middle;whiteSpace=wrap;rounded=0;labelBackgroundColor=none;strokeWidth=1;fontSize=17;fontColor=#FFFFFF;" vertex="1" parent="645">
                    <mxGeometry x="280" width="100" height="30" as="geometry"/>
                </mxCell>
                <mxCell id="578" value="Services" style="text;html=1;align=center;verticalAlign=middle;whiteSpace=wrap;rounded=0;fontSize=19;fillColor=#3C272E;fontColor=#ffffff;strokeColor=#432D57;" vertex="1" parent="554">
                    <mxGeometry y="960" width="670" height="30" as="geometry"/>
                </mxCell>
            </root>
        </mxGraphModel>
    </diagram>
</mxfile>